<svg xmlns="http://www.w3.org/2000/svg" viewBox="0 0 152.21 162.29"><title>danke</title><g id="图层_2" data-name="图层 2"><g id="图层_2-2" data-name="图层 2"><path d="M30.89,60.81,2.6,83.25c3.2-31.63,18.54-61,28.87-77.62a34.11,34.11,0,0,0,30,17.87h.21A34.49,34.49,0,0,0,91.91,5c11,19.94,23.55,48.42,26.29,78.4L94.79,64,58.94,89.86Z"></path><path d="M91.85,9c9.87,18.43,20.48,43.32,23.83,69.65l-12.07-10-6.35-5.25-2.38-2-2.51,1.81-18,13-15.19,11-11.59-12-14-14.5-2.52-2.61-2.85,2.26L13,72.46l-7.81,6.2C9.06,50.94,21.88,25.4,31.46,9.48a36.11,36.11,0,0,0,30.05,16h.22A36.47,36.47,0,0,0,91.85,9M91.71.5a32.34,32.34,0,0,1-30,21h-.2a32.32,32.32,0,0,1-29.8-20C23.17,14.8,2.64,49.36.23,87.69L30.71,63.5l28,29,36-26,25.84,21.38C118.4,50.15,100,15.07,91.71.5Z"></path><path d="M30.35,67.89l8.87,9.18L55.83,94.28l2.41,2.49,2.81-2,14.4-10.4L94.54,70.55l4,3.29,18.13,15a103.36,103.36,0,0,1-3.77,33.54c-1.68,5.72-4.74,14.16-12,21.27-9.45,9.3-24.06,14.64-40.09,14.64S30.12,153,20.49,143.63c-6-5.77-10.07-13.15-12.93-23.22A98.59,98.59,0,0,1,4.13,88.7L18,77.73l12.39-9.84m.36-5.39L.23,86.69A103,103,0,0,0,3.71,121.5c2.62,9.23,6.61,17.85,14,25,10.9,10.55,27,15.79,43.1,15.79S93,157,103.71,146.5c7.63-7.51,11-16.23,13-23a108.1,108.1,0,0,0,3.84-36.62L94.71,65.5l-36,26-28-29Z"></path><path d="M152.21,160s0-5.1-13.5-4.08-13.5,4.08-13.5,4.08V0s0,4.08,13.5,4.08S152.21,0,152.21,0Z"></path></g></g></svg>